<?xml version="1.0" encoding="UTF-8" standalone="no"?>
<svg
   xmlns:dc="http://purl.org/dc/elements/1.1/"
   xmlns:cc="http://creativecommons.org/ns#"
   xmlns:rdf="http://www.w3.org/1999/02/22-rdf-syntax-ns#"
   xmlns:svg="http://www.w3.org/2000/svg"
   xmlns="http://www.w3.org/2000/svg"
   xmlns:sodipodi="http://sodipodi.sourceforge.net/DTD/sodipodi-0.dtd"
   xmlns:inkscape="http://www.inkscape.org/namespaces/inkscape"
   id="master-artboard"
   viewBox="0 0 400 300"
   version="1.1"
   x="0px"
   y="0px"
   style="enable-background:new 0 0 1400 980;"
   width="400px"
   height="300px"
   sodipodi:docname="Untitled (1).svg"
   inkscape:version="0.92.2 (5c3e80d, 2017-08-06)">
  <metadata
     id="metadata23">
    <rdf:RDF>
      <cc:Work
         rdf:about="">
        <dc:format>image/svg+xml</dc:format>
        <dc:type
           rdf:resource="http://purl.org/dc/dcmitype/StillImage" />
        <dc:title></dc:title>
      </cc:Work>
    </rdf:RDF>
  </metadata>
  <sodipodi:namedview
     pagecolor="#ffffff"
     bordercolor="#666666"
     borderopacity="1"
     objecttolerance="10"
     gridtolerance="10"
     guidetolerance="10"
     inkscape:pageopacity="0"
     inkscape:pageshadow="2"
     inkscape:window-width="1440"
     inkscape:window-height="838"
     id="namedview21"
     showgrid="false"
     showguides="true"
     inkscape:guide-bbox="true"
     inkscape:snap-page="true"
     inkscape:zoom="1.6328077"
     inkscape:cx="235.45911"
     inkscape:cy="194.81412"
     inkscape:window-x="-8"
     inkscape:window-y="-8"
     inkscape:window-maximized="1"
     inkscape:current-layer="master-artboard">
    <inkscape:grid
       type="xygrid"
       id="grid3725" />
    <sodipodi:guide
       position="0,0"
       orientation="1,0"
       id="guide3727"
       inkscape:locked="false" />
    <sodipodi:guide
       position="400,242"
       orientation="1,0"
       id="guide3729"
       inkscape:locked="false" />
    <sodipodi:guide
       position="378,300"
       orientation="0,1"
       id="guide3746"
       inkscape:locked="false" />
    <sodipodi:guide
       position="88,0"
       orientation="0,1"
       id="guide3748"
       inkscape:locked="false" />
  </sodipodi:namedview>
  <defs
     id="defs4">
    <clipPath
       id="clipPath18"
       clipPathUnits="userSpaceOnUse">
      <path
         id="path16"
         d="M 0,288 H 288 V 0 H 0 Z" />
    </clipPath>
  </defs>
  <rect
     id="ee-background"
     x="0"
     y="0"
     width="400"
     height="300"
     style="fill: rgb(255, 255, 255); fill-opacity: 1; pointer-events: none;" />
  <path
     inkscape:connector-curvature="0"
     d="M 32.94701,215.47582 H 65.7071 l 9.185744,-26.17258 h 20.97609 V 152.59825 H 54.98775 Z m 131.04352,0 h -32.76009 l -9.14139,-26.17258 h -20.97609 v -36.70499 h 40.88119 z M 140.13736,147.40176 118.09662,84.52418 h -16.98366 v 62.87758 z m -44.268426,0 H 56.79701 L 78.793384,84.52418 h 17.07555 z m 119.167626,0 V 84.52418 h 10.4817 c 16.1028,0 29.51545,13.36513 29.51545,29.46793 0,10.62746 -5.93794,20.46278 -15.03181,25.75433 4.40435,1.62232 8.95445,4.64199 12.29732,7.74721 z m 0,68.07406 v -62.87757 l 41.94584,0.0475 c 4.82893,6.86634 7.84227,15.12687 7.84227,23.52681 0,21.62248 -17.67442,39.30323 -39.30641,39.30323 z m -5.24403,-68.07406 H 173.17945 V 84.52418 h 36.61308 z m 0,68.07406 h -36.61308 v -62.87757 h 36.61308 z m 107.46919,-68.07406 37.26266,0.0919 c -3.3397,-3.10522 -7.8898,-6.12489 -12.29732,-7.74721 9.09704,-5.29155 14.98745,-15.12687 14.98745,-25.75433 0,-16.1028 -13.36513,-29.46793 -29.46475,-29.46793 h -10.48804 z m 41.95217,5.24402 c 4.8226,6.86634 7.8391,15.12686 7.8391,23.52681 0,21.62248 -17.68075,39.30323 -39.30323,39.30323 H 317.26172 V 152.59825 Z M 312.0177,147.40176 H 275.31271 V 84.52418 h 36.70499 z m 0,5.19649 h -36.70499 v 62.87757 h 36.70499 z"
     style="fill:#ed1c24;fill-opacity:1;fill-rule:evenodd;stroke:none;stroke-width:3.16859341"
     id="path22-1" />
</svg>
