<?xml version="1.0" encoding="UTF-8" standalone="no"?>
<svg
   xmlns:dc="http://purl.org/dc/elements/1.1/"
   xmlns:cc="http://creativecommons.org/ns#"
   xmlns:rdf="http://www.w3.org/1999/02/22-rdf-syntax-ns#"
   xmlns:svg="http://www.w3.org/2000/svg"
   xmlns="http://www.w3.org/2000/svg"
   xmlns:sodipodi="http://sodipodi.sourceforge.net/DTD/sodipodi-0.dtd"
   xmlns:inkscape="http://www.inkscape.org/namespaces/inkscape"
   id="master-artboard"
   viewBox="0 0 400 300"
   version="1.1"
   x="0px"
   y="0px"
   style="enable-background:new 0 0 1400 980;"
   width="400px"
   height="300px"
   sodipodi:docname="Untitled (1).svg"
   inkscape:version="0.92.2 (5c3e80d, 2017-08-06)">
  <metadata
     id="metadata23">
    <rdf:RDF>
      <cc:Work
         rdf:about="">
        <dc:format>image/svg+xml</dc:format>
        <dc:type
           rdf:resource="http://purl.org/dc/dcmitype/StillImage" />
        <dc:title></dc:title>
      </cc:Work>
    </rdf:RDF>
  </metadata>
  <sodipodi:namedview
     pagecolor="#ffffff"
     bordercolor="#666666"
     borderopacity="1"
     objecttolerance="10"
     gridtolerance="10"
     guidetolerance="10"
     inkscape:pageopacity="0"
     inkscape:pageshadow="2"
     inkscape:window-width="1440"
     inkscape:window-height="838"
     id="namedview21"
     showgrid="false"
     showguides="true"
     inkscape:guide-bbox="true"
     inkscape:snap-page="true"
     inkscape:zoom="1.5208438"
     inkscape:cx="223.71698"
     inkscape:cy="194.4385"
     inkscape:window-x="-8"
     inkscape:window-y="-8"
     inkscape:window-maximized="1"
     inkscape:current-layer="master-artboard">
    <inkscape:grid
       type="xygrid"
       id="grid3725" />
    <sodipodi:guide
       position="0,0"
       orientation="1,0"
       id="guide3727"
       inkscape:locked="false" />
    <sodipodi:guide
       position="400,242"
       orientation="1,0"
       id="guide3729"
       inkscape:locked="false" />
    <sodipodi:guide
       position="378,300"
       orientation="0,1"
       id="guide3746"
       inkscape:locked="false" />
    <sodipodi:guide
       position="88,0"
       orientation="0,1"
       id="guide3748"
       inkscape:locked="false" />
  </sodipodi:namedview>
  <defs
     id="defs4">
    <clipPath
       id="clipPath18"
       clipPathUnits="userSpaceOnUse">
      <path
         id="path16"
         d="M 0,288 H 288 V 0 H 0 Z" />
    </clipPath>
  </defs>
  <rect
     id="ee-background"
     x="0"
     y="0"
     width="400"
     height="300"
     style="fill: rgb(255, 255, 255); fill-opacity: 1; pointer-events: none;" />
  <g
     id="g3838"
     transform="translate(8.0013215,163.90212)">
    <path
       inkscape:connector-curvature="0"
       id="path18-5"
       style="fill:#000000;fill-opacity:1;fill-rule:evenodd;stroke:none;stroke-width:0.01837337"
       d="m 43.440505,12.87422 c 0,3.061 0.803835,5.83703 2.417935,8.32111 1.80647,2.77897 4.131804,4.45408 6.979125,5.0253 2.180368,0.57564 3.937229,0.86208 5.267277,0.86208 9.018018,0 14.331229,-4.26979 15.947351,-12.80752 0.567737,-2.97428 0.854178,-7.10113 0.854178,-12.37851 V -69.331363 H 88.614558 V 13.80005 c -1.5373,9.70041 -5.426575,16.47283 -11.661945,20.31176 -5.57099,3.55635 -11.471965,5.32901 -17.70954,5.32901 -1.821536,0 -3.163711,-0.14276 -4.027076,-0.42846 -7.39179,0 -13.490095,-2.4251 -18.285177,-7.28119 -4.800043,-4.8524 -7.198503,-10.97588 -7.198503,-18.37833 V 2.25202 h 13.709657 v 10.6222 z M 124.15912,35.62339 H 110.44879 V -69.331547 h 13.71033 z" />
    <path
       inkscape:connector-curvature="0"
       id="path20-7"
       style="fill:#00acec;fill-opacity:1;fill-rule:evenodd;stroke:none;stroke-width:0.01837337"
       d="m 281.87778,12.12128 14.45801,-16.0508 v 39.65488 l -14.45801,13.59189 z" />
    <path
       inkscape:connector-curvature="0"
       id="path24-5"
       style="fill:#000000;fill-opacity:1;fill-rule:evenodd;stroke:none;stroke-width:0.02021825"
       d="m 304.62114,35.73414 h 49.6439 L 289.10768,-77.121499 228.43271,27.97943 187.37046,-26.31344 230.47071,-69.210098 H 213.01003 L 161.1302,-17.18611 V -69.210098 H 147.42061 V 35.74506 H 161.1302 V 0 l 17.16833,-16.89841 38.52042,52.64003 h 56.27386 V 22.47603 h -26.17859 l 42.19346,-73.081294 42.19549,73.081294 h -26.68203 z" />
  </g>
</svg>
