<?xml version="1.0" encoding="UTF-8" standalone="no"?>
<svg
   xmlns:dc="http://purl.org/dc/elements/1.1/"
   xmlns:cc="http://creativecommons.org/ns#"
   xmlns:rdf="http://www.w3.org/1999/02/22-rdf-syntax-ns#"
   xmlns:svg="http://www.w3.org/2000/svg"
   xmlns="http://www.w3.org/2000/svg"
   xmlns:sodipodi="http://sodipodi.sourceforge.net/DTD/sodipodi-0.dtd"
   xmlns:inkscape="http://www.inkscape.org/namespaces/inkscape"
   id="master-artboard"
   viewBox="0 0 400 300"
   version="1.1"
   x="0px"
   y="0px"
   style="enable-background:new 0 0 1400 980;"
   width="400px"
   height="300px"
   sodipodi:docname="Untitled (1).svg"
   inkscape:version="0.92.2 (5c3e80d, 2017-08-06)">
  <metadata
     id="metadata23">
    <rdf:RDF>
      <cc:Work
         rdf:about="">
        <dc:format>image/svg+xml</dc:format>
        <dc:type
           rdf:resource="http://purl.org/dc/dcmitype/StillImage" />
        <dc:title></dc:title>
      </cc:Work>
    </rdf:RDF>
  </metadata>
  <sodipodi:namedview
     pagecolor="#ffffff"
     bordercolor="#666666"
     borderopacity="1"
     objecttolerance="10"
     gridtolerance="10"
     guidetolerance="10"
     inkscape:pageopacity="0"
     inkscape:pageshadow="2"
     inkscape:window-width="1440"
     inkscape:window-height="838"
     id="namedview21"
     showgrid="false"
     showguides="true"
     inkscape:guide-bbox="true"
     inkscape:snap-page="true"
     inkscape:zoom="1.5208438"
     inkscape:cx="223.71698"
     inkscape:cy="194.4385"
     inkscape:window-x="-8"
     inkscape:window-y="-8"
     inkscape:window-maximized="1"
     inkscape:current-layer="g3838">
    <inkscape:grid
       type="xygrid"
       id="grid3725" />
    <sodipodi:guide
       position="0,0"
       orientation="1,0"
       id="guide3727"
       inkscape:locked="false" />
    <sodipodi:guide
       position="400,242"
       orientation="1,0"
       id="guide3729"
       inkscape:locked="false" />
    <sodipodi:guide
       position="378,300"
       orientation="0,1"
       id="guide3746"
       inkscape:locked="false" />
    <sodipodi:guide
       position="88,0"
       orientation="0,1"
       id="guide3748"
       inkscape:locked="false" />
  </sodipodi:namedview>
  <defs
     id="defs4">
    <clipPath
       id="clipPath18"
       clipPathUnits="userSpaceOnUse">
      <path
         id="path16"
         d="M 0,288 H 288 V 0 H 0 Z" />
    </clipPath>
    <clipPath
       clipPathUnits="userSpaceOnUse"
       id="clipPath18-8">
      <path
         d="M 0,285.89 H 802 V 0 H 0 Z"
         id="path16-5" />
    </clipPath>
  </defs>
  <rect
     id="ee-background"
     x="0"
     y="0"
     width="400"
     height="300"
     style="fill: rgb(255, 255, 255); fill-opacity: 1; pointer-events: none;" />
  <g
     id="g3838"
     transform="translate(0.65752973,163.90212)">
    <g
       id="g3894"
       transform="translate(110.57596,58.436925)">
      <path
         inkscape:connector-curvature="0"
         id="path22-3"
         style="fill:#d91920;fill-opacity:1;fill-rule:evenodd;stroke:none;stroke-width:0.49875316"
         d="m -25.840465,-73.3601 h 8.278804 v 8.27731 h 6.063841 v -8.27731 h 8.2783036 v -6.06634 H -11.49782 v -8.27381 h -6.063841 v 8.27381 h -8.278804 z m -19.329677,14.86384 c 10.248879,-10.32868 13.729178,-30.21646 22.426934,-35.18704 8.700749,-4.96309 20.1291786,-1.42244 25.4354126,7.88479 5.305736,9.29876 2.539651,20.93566 -6.159102,25.90225 -8.7042396,4.96509 -27.3915226,-1.61646 -41.7032446,1.4" />
      <path
         inkscape:connector-curvature="0"
         id="path26-6"
         style="fill:#0a4875;fill-opacity:1;fill-rule:evenodd;stroke:none;stroke-width:0.49875316"
         d="m 231.61062,-46.97247 0.67032,-3.15412 h 2.64838 c 1.58354,0 2.52519,0.10175 2.21247,1.57058 -0.27132,1.2374 -1.09227,1.58354 -2.61696,1.58354 z m -3.801,5.54563 h 2.63392 l 0.73316,-3.51271 h 3.52818 c 2.42344,0 4.63591,-0.76409 5.26285,-3.69327 0.46384,-2.15312 -0.53866,-3.57307 -3.4828,-3.57307 h -6.38504 z m -8.09426,-10.78005 h -2.64589 l -1.36209,6.35611 c -0.22444,1.08928 -0.26883,1.7631 -0.0733,2.40599 0.40499,1.40549 1.82244,2.30524 4.49875,2.30524 3.81397,0 5.78853,-1.67681 6.43043,-4.65187 l 1.3601,-6.41547 h -2.64589 l -1.28728,6.05487 c -0.38703,1.78005 -1.22594,2.96309 -3.40698,2.96309 -2.06384,0 -2.57158,-1.04888 -2.15362,-2.96309 z m -8.35262,5.4 c -0.43541,2.04689 -2.13916,3.62943 -4.4399,3.62943 -2.33367,0 -3.35063,-1.58254 -2.91771,-3.64788 0.43641,-2.03342 2.13915,-3.61796 4.45786,-3.61796 2.33017,0 3.33416,1.602 2.89975,3.63641 m -2.44988,-5.69825 c -4.39751,0 -7.13416,2.58504 -7.79052,5.6798 -0.66085,3.14414 0.95461,5.71421 5.36608,5.71421 4.37905,0 7.11871,-2.58852 7.77506,-5.66783 0.65736,-3.14114 -0.95361,-5.72618 -5.35062,-5.72618 m -16.99352,5.02194 0.55262,-2.63092 h 2.80948 c 1.37755,0 2.40898,0.0454 2.15361,1.28429 -0.2389,1.11122 -1.41845,1.34663 -2.34563,1.34663 z m -3.9187,6.05786 h 2.63142 l 0.8394,-3.99401 h 3.18155 c 1.33067,0 1.69027,0.46384 1.42394,2.18503 -0.16658,1.10374 -0.22643,1.37656 -0.1207,1.80898 h 2.92818 c -0.29775,-0.54165 -0.20997,-1.16559 -0.0145,-2.37706 0.25436,-1.60199 0.18105,-2.46533 -1.02993,-2.78154 1.44938,-0.49576 2.25586,-1.36359 2.55462,-2.7232 0.37655,-1.77556 -0.43043,-2.89975 -3.31821,-2.89975 h -6.78803 z m -0.86384,-5.89526 h -5.36758 l -0.41546,1.99252 h 2.65686 c -0.80749,1.45037 -2.1212,2.13815 -3.78155,2.13815 -2.34713,0 -3.42095,-1.58304 -2.99003,-3.63541 0.43342,-2.01596 2.15362,-3.61596 4.47133,-3.61596 1.43591,0 2.42344,0.55461 2.73566,1.85436 h 2.9606 c 0.0913,-2.54364 -2.04689,-3.91571 -5.35063,-3.91571 -4.00798,0 -6.98653,2.34514 -7.68429,5.63242 -0.75012,3.49776 1.2399,5.72868 5.18753,5.72868 1.7601,0 3.34714,-0.4813 4.51123,-1.61596 l -0.13417,1.33167 h 1.9611 z m -28.98604,5.89277 h 8.70125 l 0.43292,-2.10624 h -6.07033 l 1.85487,-8.67182 h -2.63342 z m -8.14164,-4.3197 2.36359,-3.69527 0.83491,3.69527 z m 1.67581,-6.45836 c -2.43891,3.60349 -4.88878,7.19202 -7.31322,10.77806 h 2.85536 l 1.49626,-2.33217 h 4.94913 l 0.53815,2.33217 h 3.00499 c -0.92718,-3.58604 -1.85486,-7.17457 -2.76509,-10.77806 h -2.76558 m -19.29726,10.77806 h 2.55661 l 1.57057,-7.44589 4.25985,7.44589 h 2.97457 l 2.28728,-10.77806 h -2.53965 l -1.58504,7.44589 h -0.017 l -4.16758,-7.44589 h -3.05287 z m -3.49377,-5.37906 c -0.43541,2.04689 -2.13915,3.62943 -4.4404,3.62943 -2.33316,0 -3.35012,-1.58254 -2.9172,-3.64788 0.43441,-2.03342 2.13765,-3.61796 4.45735,-3.61796 2.33018,0 3.33467,1.602 2.90025,3.63641 m -2.45187,-5.69825 c -4.39601,0 -7.13267,2.58504 -7.78853,5.6798 -0.66134,3.14414 0.95262,5.71421 5.36559,5.71421 4.37955,0 7.1192,-2.58852 7.77506,-5.66783 0.65786,-3.14114 -0.9596,-5.72618 -5.35212,-5.72618 m -16.99152,5.02194 0.55262,-2.63092 h 2.80948 c 1.37705,0 2.40897,0.0454 2.15311,1.28429 -0.2389,1.11122 -1.41845,1.34663 -2.34513,1.34663 z m -3.9187,6.05786 h 2.63042 l 0.8399,-3.99401 h 3.18205 c 1.33067,0 1.68977,0.46384 1.42344,2.18503 -0.16659,1.10374 -0.22644,1.37656 -0.1207,1.80898 h 2.93167 c -0.30075,-0.54165 -0.21347,-1.16559 -0.0175,-2.37706 0.25437,-1.60199 0.18055,-2.46533 -1.03042,-2.78154 1.44988,-0.49576 2.25636,-1.36359 2.55561,-2.7232 0.37556,-1.77556 -0.43192,-2.89975 -3.3192,-2.89975 h -6.78753 z m 145.01597,-57.48479 c 0.20598,0 0.41396,-0.006 0.5571,-0.0284 0.35911,-0.0519 0.5621,-0.12319 0.73068,-0.42743 0.12568,-0.29925 0.23541,-0.86384 -0.26983,-1.16309 -0.50873,-0.27681 -1.34164,-0.14115 -2.05187,-0.16808 v 1.78703 h 1.03392 m 2.43341,3.24937 h -0.96907 l -1.50275,-2.50822 h -0.99551 v 2.50822 h -0.86683 v -5.78204 h 2.17755 c 0.57656,0.0394 1.18305,-0.0379 1.7606,0.66384 0.31322,0.54913 0.50524,1.46484 -0.25735,2.19551 -0.31571,0.24888 -0.6,0.3197 -0.96509,0.37955 z m 0.83043,-0.40299 c 0.75461,-1.11321 0.94713,-2.47581 0.5606,-3.81047 -0.12968,-0.42394 -0.31921,-0.81846 -0.56759,-1.17307 -0.25087,-0.35262 -0.54663,-0.65985 -0.88628,-0.91671 -1.08479,-0.77556 -2.34613,-0.95162 -3.61097,-0.57207 -0.4,0.12918 -0.77905,0.32319 -1.1192,0.57207 -0.34365,0.25686 -0.65038,0.56409 -0.89726,0.91671 -0.5187,0.73816 -0.76309,1.62294 -0.75711,2.48678 0,0.44589 0.0598,0.89876 0.19451,1.3202 0.1212,0.42893 0.31522,0.82145 0.55711,1.18005 0.24439,0.35162 0.54813,0.66035 0.89526,0.91621 1.06684,0.76958 2.3611,0.96359 3.62345,0.57656 0.3975,-0.13366 0.77805,-0.32618 1.1182,-0.57656 0.34015,-0.25586 0.6394,-0.56459 0.88928,-0.9197 m 0.83491,-5.3985 c 0.93416,1.34563 1.13167,2.88728 0.68529,4.41895 -0.15262,0.49526 -0.37906,0.96509 -0.68529,1.39501 -0.29426,0.42694 -0.67531,0.80998 -1.09875,1.13018 -0.89576,0.65636 -1.9631,0.98005 -2.98953,0.97656 -0.53416,0 -1.06434,-0.0853 -1.57706,-0.24938 -0.50623,-0.16259 -0.99351,-0.41446 -1.42593,-0.72718 -0.43142,-0.3202 -0.81048,-0.70324 -1.10923,-1.12718 -0.92269,-1.33467 -1.13516,-2.90125 -0.68529,-4.43192 0.15561,-0.48928 0.38354,-0.95911 0.68529,-1.38504 0.29875,-0.42743 0.67781,-0.81048 1.10923,-1.12669 1.35611,-0.96957 2.98653,-1.22493 4.56908,-0.72369 0.50423,0.1606 0.98703,0.40699 1.41596,0.72369 0.43092,0.31621 0.81197,0.69926 1.10623,1.12669 m -215.488289,-0.14514 c -2.12419,-1.03641 -5.401,-1.95611 -9.65437,-1.95611 -10.286782,0 -16.030423,5.91721 -16.030423,13.44738 0,5.28479 3.617955,9.65337 10.628933,12.87083 4.60049,2.06932 6.61097,3.56459 6.61097,6.26633 0,2.6399 -2.07033,4.48329 -6.32419,4.48329 -3.561099,0 -7.297758,-1.09376 -9.654367,-2.30224 l -1.720199,8.50574 c 2.065337,1.15162 6.493267,2.30773 10.975566,2.30773 10.74663,0 16.89127,-5.75711 16.89127,-13.85537 0,-5.5202 -2.93067,-9.88578 -9.99751,-13.04638 -5.40149,-2.47282 -7.2389,-3.67831 -7.2389,-6.14663 0,-2.18454 1.89726,-4.0818 5.799,-4.0818 3.56858,0 6.20998,1.03342 7.81846,1.83741 z m 30.67182,35.39352 c 0,2.87581 0.11521,5.69277 0.51621,7.64239 h -9.07781 l -0.57356,-3.10074 h -0.17407 c -1.94962,2.58753 -4.9995,3.74763 -8.32768,3.74763 -5.86035,0 -9.71422,-4.49726 -9.71422,-9.95412 0,-8.56259 7.6439,-12.23591 17.17906,-12.29526 0,-2.46933 -1.08678,-4.25436 -5.17207,-4.25436 -3.04389,0 -5.91671,0.92119 -7.98703,2.18403 l -1.83641,-6.54812 c 2.06833,-1.15262 6.26533,-2.75661 11.8384,-2.75661 10.68728,0 13.32918,6.77755 13.32918,13.9596 z m -9.82195,-7.6394 c -4.1975,0 -7.7581,1.20548 -7.7581,4.94613 0,2.6404 1.60748,3.79302 3.38903,3.79302 2.06783,0 4.36907,-1.49676 4.36907,-4.54165 z m 42.466339,-4.42594 c 0,-8.39002 -3.617459,-13.27132 -10.394509,-13.27132 -4.48679,0 -7.53168,2.52519 -8.96709,4.70873 h -0.17705 l -0.51173,-4.0798 h -8.6773 c 0.11371,3.04738 0.22743,6.49676 0.22743,10.34663 v 22.00349 h 10.11521 v -18.9596 c 0,-4.13666 2.2394,-5.68878 4.36509,-5.68878 2.87182,0 3.90923,2.46833 3.90923,5.86035 v 18.78803 h 10.110719 z m 29.41796,-23.32818 c -2.1232,-1.03641 -5.401,-1.95611 -9.65337,-1.95611 -10.28728,0 -16.03092,5.91721 -16.03092,13.44738 0,5.28479 3.61795,9.65337 10.62892,12.87083 4.59801,2.06932 6.61048,3.56459 6.61048,6.26633 0,2.6399 -2.07033,4.48329 -6.32718,4.48329 -3.55811,0 -7.29427,-1.09376 -9.65038,-2.30224 l -1.7207,8.50574 c 2.06833,1.15162 6.49377,2.30773 10.97557,2.30773 10.74613,0 16.89576,-5.75711 16.89576,-13.85537 0,-5.5202 -2.92918,-9.88578 -9.99901,-13.04638 -5.40449,-2.47282 -7.24189,-3.67831 -7.24189,-6.14663 0,-2.18454 1.89825,-4.0818 5.80199,-4.0818 3.56559,0 6.20699,1.03342 7.81497,1.83741 z m 37.1207,10.68629 -2.12818,12.81147 c -0.57806,3.62494 -1.09227,7.18603 -1.4399,10.57556 h -0.16808 c -0.46085,-3.44489 -1.20599,-6.89377 -1.95761,-10.57556 l -2.75711,-12.81147 h -7.92768 l -2.93117,13.21596 c -0.63591,3.16558 -1.49227,6.72618 -2.01297,10.17107 h -0.17107 c -0.34464,-3.44489 -0.9187,-6.89377 -1.38404,-10.28628 l -2.00549,-13.10075 H 133.6151 l 8.73067,32.35012 h 9.19851 l 2.75711,-10.57207 c 0.74364,-2.98404 1.43391,-6.20149 1.89576,-10.11172 h 0.17257 c 0.51271,3.91023 1.09226,7.06833 1.78104,10.11172 l 2.47182,10.57207 h 9.19153 l 9.14114,-32.35012 z m 22.29077,-7.46983 c 0,-3.04888 -2.12917,-5.17606 -5.17755,-5.17606 -2.98654,0 -5.17008,2.12718 -5.17008,5.17606 0,2.92569 2.12369,5.11372 5.17008,5.11372 2.93167,0 5.17755,-2.06783 5.17755,-5.11372 m -0.1207,7.46833 h -10.11471 v 32.34913 h 10.11471 z m 24.07332,1.09626 c -1.95112,-0.92419 -4.82543,-1.72419 -8.1581,-1.72419 -7.58105,0 -12.41098,4.59252 -12.41098,10.68728 0,3.33217 1.89626,6.95312 8.10275,9.53816 3.26883,1.3202 4.19701,2.12519 4.19701,3.67681 0,1.55162 -1.20948,2.40947 -3.73616,2.40947 -2.59103,0 -5.9222,-1.14464 -7.53168,-2.1207 l -1.72369,7.2409 c 2.07132,1.26434 5.69277,2.13217 9.31073,2.13217 8.1581,0 13.21945,-3.85586 13.21945,-10.52668 -0.0599,-4.13317 -2.18903,-7.46933 -7.81496,-9.82195 -3.5611,-1.49277 -4.54065,-2.29925 -4.54065,-3.62194 0,-1.43591 1.14414,-2.41247 3.38853,-2.41247 2.29626,0 4.597,0.86384 5.97456,1.60898 z m 23.90823,0 c -1.95112,-0.92419 -4.82743,-1.72419 -8.1581,-1.72419 -7.58055,0 -12.41098,4.59252 -12.41098,10.68728 0,3.33217 1.89626,6.95312 8.10325,9.53816 3.27182,1.3202 4.19252,2.12519 4.19252,3.67681 0,1.55162 -1.20749,2.40947 -3.73167,2.40947 -2.59103,0 -5.9207,-1.14464 -7.53168,-2.1207 l -1.72369,7.2409 c 2.07132,1.26434 5.68479,2.13217 9.30873,2.13217 8.1606,0 13.22095,-3.85586 13.22095,-10.52668 -0.0599,-4.13317 -2.18853,-7.46933 -7.82045,-9.82195 -3.56259,-1.49277 -4.53466,-2.29925 -4.53466,-3.62194 0,-1.43591 1.14414,-2.41247 3.38853,-2.41247 2.29626,0 4.6005,0.86384 5.97406,1.60898 z m -266.631435,-5.65885 c -10.248878,10.32868 -13.72818,30.21646 -22.42843,35.18603 -8.699252,4.96409 -20.127682,1.42295 -25.435413,-7.88429 -5.305736,-9.30374 -2.538155,-20.93516 6.161097,-25.90174 8.702245,-4.96509 27.391025,1.61646 41.702746,-1.4" />
    </g>
  </g>
</svg>
