<?xml version="1.0" encoding="UTF-8" standalone="no"?>
<!-- Created with Inkscape (http://www.inkscape.org/) -->

<svg
   xmlns:dc="http://purl.org/dc/elements/1.1/"
   xmlns:cc="http://creativecommons.org/ns#"
   xmlns:rdf="http://www.w3.org/1999/02/22-rdf-syntax-ns#"
   xmlns:svg="http://www.w3.org/2000/svg"
   xmlns="http://www.w3.org/2000/svg"
   xmlns:sodipodi="http://sodipodi.sourceforge.net/DTD/sodipodi-0.dtd"
   xmlns:inkscape="http://www.inkscape.org/namespaces/inkscape"
   width="50mm"
   height="50mm"
   viewBox="0 0 50 50"
   version="1.1"
   id="svg8"
   inkscape:version="0.92.2 (5c3e80d, 2017-08-06)"
   sodipodi:docname="favicon.svg">
  <defs
     id="defs2" />
  <sodipodi:namedview
     id="base"
     pagecolor="#ffffff"
     bordercolor="#666666"
     borderopacity="1.0"
     inkscape:pageopacity="0.0"
     inkscape:pageshadow="2"
     inkscape:zoom="1.0074671"
     inkscape:cx="-76.65268"
     inkscape:cy="162.55458"
     inkscape:document-units="mm"
     inkscape:current-layer="layer1"
     showgrid="false"
     inkscape:window-width="1440"
     inkscape:window-height="838"
     inkscape:window-x="-8"
     inkscape:window-y="-8"
     inkscape:window-maximized="1" />
  <metadata
     id="metadata5">
    <rdf:RDF>
      <cc:Work
         rdf:about="">
        <dc:format>image/svg+xml</dc:format>
        <dc:type
           rdf:resource="http://purl.org/dc/dcmitype/StillImage" />
        <dc:title></dc:title>
      </cc:Work>
    </rdf:RDF>
  </metadata>
  <g
     inkscape:label="Vrstva 1"
     inkscape:groupmode="layer"
     id="layer1"
     transform="translate(0,-247)">
    <g
       style="fill:none;stroke:none;stroke-linecap:square;stroke-miterlimit:10"
       id="g83"
       transform="matrix(0.0841764,0,0,0.08797659,-15.404672,240.32843)">
      <g
         id="g63"
         clip-path="url(#p.0)">
        <path
           id="path45"
           d="M 0,0 H 960 V 720 H 0 Z"
           inkscape:connector-curvature="0"
           style="fill:#000000;fill-opacity:0;fill-rule:evenodd" />
        <path
           id="path47"
           d="m 205.98425,85.98425 h 548.0315 V 524.40942 L 480,634.01574 205.98425,524.40942 Z"
           inkscape:connector-curvature="0"
           style="fill:#477998;fill-rule:evenodd" />
        <path
           id="path49"
           d="m 205.98425,85.98425 h 548.0315 V 524.40942 L 480,634.01574 205.98425,524.40942 Z"
           inkscape:connector-curvature="0"
           style="fill-rule:evenodd;stroke:#000000;stroke-width:1;stroke-linecap:butt;stroke-linejoin:round" />
        <path
           id="path51"
           d="m 341.97998,118.24114 2.54187,124.34461 -24.1698,4.52849 20.75409,114.24596 -25.26672,7.17673 9.29794,180.7384 -73.90065,-166.16943 29.88792,-6.43878 -44.99635,-105.46878 36.60985,-11.66449 -47.71712,-110.85413 z"
           inkscape:connector-curvature="0"
           style="fill:#dfd5a5;fill-rule:evenodd" />
        <path
           id="path53"
           d="m 341.97998,118.24114 2.54187,124.34461 -24.1698,4.52849 20.75409,114.24596 -25.26672,7.17673 9.29794,180.7384 -73.90065,-166.16943 29.88792,-6.43878 -44.99635,-105.46878 36.60985,-11.66449 -47.71712,-110.85413 z"
           inkscape:connector-curvature="0"
           style="fill-rule:evenodd;stroke:#000000;stroke-width:1;stroke-linecap:butt;stroke-linejoin:round" />
        <path
           id="path55"
           d="m 618.02026,118.24471 -2.54028,124.34302 24.17004,4.52831 -20.75275,114.24458 25.26697,7.17651 -9.29565,180.73611 73.89886,-166.1677 -29.88818,-6.43853 44.99524,-105.46765 -36.61023,-11.66416 47.71594,-110.85295 z"
           inkscape:connector-curvature="0"
           style="fill:#dfd5a5;fill-rule:evenodd" />
        <path
           id="path57"
           d="m 618.02026,118.24471 -2.54028,124.34302 24.17004,4.52831 -20.75275,114.24458 25.26697,7.17651 -9.29565,180.73611 73.89886,-166.1677 -29.88818,-6.43853 44.99524,-105.46765 -36.61023,-11.66416 47.71594,-110.85295 z"
           inkscape:connector-curvature="0"
           style="fill-rule:evenodd;stroke:#000000;stroke-width:1;stroke-linecap:butt;stroke-linejoin:round" />
        <path
           id="path59"
           d="m 417.43582,456.46716 v 0 c -33.78937,-33.7894 -33.54965,-88.79843 0.53543,-122.86615 q 61.71655,-61.68503 62.25198,-184.55118 -0.53543,122.86615 60.64566,184.04724 v 0 c 33.78937,33.7894 33.54969,88.79843 -0.5354,122.86615 v 0 c -34.08514,34.06769 -89.10828,34.29333 -122.89767,0.50394 z"
           inkscape:connector-curvature="0"
           style="fill:#008dd5;fill-rule:evenodd" />
        <path
           id="path61"
           d="m 417.43582,456.46716 v 0 c -33.78937,-33.7894 -33.54965,-88.79843 0.53543,-122.86615 q 61.71655,-61.68503 62.25198,-184.55118 -0.53543,122.86615 60.64566,184.04724 v 0 c 33.78937,33.7894 33.54969,88.79843 -0.5354,122.86615 v 0 c -34.08514,34.06769 -89.10828,34.29333 -122.89767,0.50394 z"
           inkscape:connector-curvature="0"
           style="fill-rule:evenodd;stroke:#000000;stroke-width:1;stroke-linecap:butt;stroke-linejoin:round" />
      </g>
    </g>
  </g>
</svg>
